<?xml version="1.0"?>
<svg xmlns="http://www.w3.org/2000/svg" width="1000" height="1000" viewBox="0 0 1000 1000" version="1.2" baseProfile="tiny-ps"><path d="M 0 500 C 0 832.667, 0.335 1000, 1 1000 C 1.665 1000, 2 832.667, 2 500 C 2 167.333, 1.665 0, 1 0 C 0.335 0, 0 167.333, 0 500 M 233.069 263.958 C 232.069 264.575, 232.054 287.172, 232.993 376.615 C 233.638 438.152, 234.467 491.869, 234.833 495.988 C 235.392 502.267, 235.808 503.535, 237.410 503.842 C 239.279 504.200, 239.305 502.768, 238.658 435.354 C 236.963 258.959, 237.046 261.499, 233.069 263.958 M 398.127 263.922 C 397.207 264.490, 397.164 286.631, 397.938 361.079 C 399.090 471.861, 399.814 502.767, 401.280 503.673 C 404.368 505.582, 404.498 501.053, 403.759 416.903 C 403.351 370.481, 402.737 317.116, 402.394 298.313 C 401.762 263.680, 401.531 261.817, 398.127 263.922 M 562.308 264.639 C 561.962 265.540, 561.977 284.328, 562.341 306.389 C 562.706 328.450, 563.241 375.300, 563.531 410.500 C 564.178 488.987, 564.653 502.930, 566.709 503.718 C 569.608 504.831, 570.020 501.507, 569.405 482 C 569.066 471.275, 568.499 418.046, 568.145 363.713 C 567.582 277.465, 567.310 264.806, 566 263.979 C 563.858 262.625, 563.024 262.774, 562.308 264.639 M 212.613 330.566 C 211.739 332.843, 213.149 504, 214.042 504 C 216.517 504, 216.810 497.861, 217.378 434 C 218.066 356.691, 217.421 329.699, 214.876 329.212 C 213.983 329.042, 212.964 329.651, 212.613 330.566 M 253.359 331.706 C 252.297 335.938, 253.925 502.325, 255.039 503.439 C 258.247 506.647, 258.427 502.594, 258.837 418.038 C 259.060 371.875, 258.955 332.957, 258.603 331.553 C 257.712 328.005, 254.263 328.106, 253.359 331.706 M 377.377 331.635 C 376.366 335.662, 377.880 502.280, 378.937 503.337 C 379.426 503.826, 380.248 503.965, 380.764 503.646 C 381.978 502.896, 383.155 377.493, 382.207 350.012 C 381.578 331.791, 381.310 329.487, 379.786 329.195 C 378.614 328.971, 377.851 329.744, 377.377 331.635 M 419 415.941 C 419 501.955, 419.154 506.246, 422.126 503.274 C 423.316 502.084, 424.600 354.873, 423.552 339.750 C 422.884 330.109, 422.611 329, 420.904 329 C 419.047 329, 419 331.132, 419 415.941 M 542.614 330.563 C 541.826 332.617, 542.042 453.756, 542.885 482.419 C 543.300 496.549, 543.866 503.459, 544.627 503.711 C 545.247 503.917, 546.020 503.389, 546.346 502.540 C 547.313 500.020, 548.171 355.603, 547.300 342.011 C 546.639 331.686, 546.219 329.469, 544.876 329.212 C 543.983 329.042, 542.965 329.649, 542.614 330.563 M 584 415.941 C 584 477.468, 584.318 503.078, 585.087 503.554 C 585.685 503.923, 586.650 503.750, 587.231 503.169 C 588.440 501.960, 589.748 338.799, 588.597 332.665 C 588.084 329.930, 587.414 329, 585.955 329 C 584.030 329, 584 330.338, 584 415.941 M 191.693 410.692 C 191.430 411.686, 191.504 432.975, 191.858 458 C 192.488 502.619, 192.539 503.500, 194.500 503.500 C 196.472 503.500, 196.500 502.833, 196.500 456.500 L 196.500 409.500 194.336 409.192 C 192.922 408.990, 192.006 409.510, 191.693 410.692 M 274.456 410.072 C 273.283 411.969, 274.381 501.139, 275.598 502.803 C 278.709 507.058, 279 503.051, 279 455.941 C 279 410.142, 278.953 409, 277.059 409 C 275.991 409, 274.820 409.482, 274.456 410.072 M 357 455.871 C 357 487.448, 357.343 503.094, 358.044 503.527 C 358.618 503.882, 359.747 503.625, 360.554 502.955 C 361.810 501.913, 361.983 495.141, 361.760 455.619 L 361.500 409.500 359.250 409.180 L 357 408.861 357 455.871 M 439.308 410.639 C 438.335 413.176, 439.876 502.276, 440.911 503.311 C 443.730 506.130, 444 501.986, 444 455.941 C 444 409.425, 443.982 409, 441.969 409 C 440.851 409, 439.654 409.737, 439.308 410.639 M 522.240 456.179 C 522.496 502.747, 522.532 503.500, 524.500 503.500 C 526.472 503.500, 526.500 502.833, 526.500 456.500 L 526.500 409.500 524.240 409.179 L 521.980 408.858 522.240 456.179 M 604.366 410.488 C 604.023 411.383, 603.949 432.353, 604.201 457.088 C 604.548 490.975, 604.966 502.362, 605.898 503.281 C 609.172 506.508, 609.500 502.141, 609.500 455.393 L 609.500 409.500 607.246 409.180 C 605.866 408.984, 604.749 409.491, 604.366 410.488 M 172.337 455.264 C 171.204 457.097, 170.746 501.292, 171.843 502.896 C 172.368 503.663, 173.519 504.015, 174.399 503.677 C 175.805 503.138, 176 500.152, 176 479.138 C 176 459.027, 175.766 455.124, 174.532 454.651 C 173.725 454.341, 172.737 454.617, 172.337 455.264 M 296.176 455.224 C 295.342 456.058, 295 463.180, 295 479.731 C 295 500.202, 295.196 503.138, 296.601 503.677 C 297.481 504.015, 298.600 503.663, 299.086 502.896 C 299.572 502.128, 299.976 491.318, 299.985 478.872 C 299.997 461.303, 299.704 455.999, 298.676 455.146 C 297.710 454.344, 297.035 454.365, 296.176 455.224 M 502.688 454.646 C 502.309 455.024, 502 466.316, 502 479.740 C 502 502.446, 502.122 504.123, 503.750 503.810 C 505.360 503.500, 505.500 501.516, 505.500 479.070 C 505.500 455.895, 505.081 452.253, 502.688 454.646 M 626.294 455.294 C 625.148 457.088, 624.740 501.248, 625.855 502.896 C 626.374 503.663, 627.519 504.015, 628.399 503.677 C 629.805 503.138, 630 500.152, 630 479.138 C 630 459.027, 629.766 455.124, 628.532 454.651 C 627.725 454.341, 626.717 454.630, 626.294 455.294 M 336.648 460.250 C 335.697 468.166, 335.904 501.300, 336.914 502.896 C 337.400 503.663, 338.519 504.015, 339.399 503.677 C 340.806 503.137, 341 500.143, 341 479.031 C 341 456.266, 340.902 455, 339.139 455 C 337.641 455, 337.156 456.024, 336.648 460.250 M 460.487 457.250 C 460.183 458.488, 460.062 469.400, 460.217 481.500 C 460.490 502.739, 460.569 503.500, 462.500 503.500 C 464.438 503.500, 464.508 502.744, 464.768 479.250 C 465.029 455.583, 464.988 455, 463.037 455 C 461.794 455, 460.829 455.851, 460.487 457.250 M 151.688 469.646 C 151.309 470.024, 151 477.635, 151 486.560 C 151 500.011, 151.255 502.884, 152.490 503.358 C 154.734 504.219, 155.106 501.181, 154.787 484.582 C 154.519 470.652, 153.860 467.474, 151.688 469.646 M 316.623 470.540 C 316.280 471.433, 316 478.822, 316 486.959 C 316 498.839, 316.293 501.999, 317.488 502.990 C 318.681 503.981, 319.083 503.947, 319.515 502.822 C 320.579 500.049, 319.545 469.679, 318.373 469.290 C 317.753 469.084, 316.966 469.646, 316.623 470.540 M 481.688 469.646 C 480.637 470.696, 480.899 501.292, 481.974 502.992 C 484.294 506.661, 485.047 502.095, 484.776 486.007 C 484.517 470.702, 483.900 467.433, 481.688 469.646 M 646.798 485.014 C 646.634 493.821, 646.650 501.471, 646.833 502.014 C 647.017 502.556, 647.804 503, 648.583 503 C 649.750 503, 650 500, 650 486 C 650 471.804, 649.760 469, 648.548 469 C 647.351 469, 647.043 471.817, 646.798 485.014 M 257.687 533.647 C 257.309 534.024, 257 541.008, 257 549.167 L 257 564 262.800 564 C 265.990 564, 269.140 564.540, 269.800 565.200 C 270.699 566.099, 271 577.998, 271 612.593 C 271 653.793, 271.171 658.852, 272.582 659.393 C 274.627 660.178, 293.809 660.158, 296.757 659.368 L 299.015 658.763 298.757 596.131 L 298.500 533.500 278.437 533.230 C 267.402 533.081, 258.065 533.269, 257.687 533.647 M 599.500 537.385 C 585.756 540.108, 574.542 549.001, 568.001 562.366 C 562.684 573.230, 560.953 580.285, 560.278 593.843 C 558.811 623.298, 569.971 646.980, 589.705 656.291 C 596.122 659.318, 597.140 659.497, 608 659.498 C 619.001 659.500, 619.795 659.356, 626.305 656.173 C 638.343 650.286, 648.427 637.305, 652.145 622.904 C 654.151 615.137, 653.924 615, 639.044 615 L 626.025 615 623.632 618.750 C 616.318 630.213, 604.469 632.515, 595.658 624.186 C 585.655 614.729, 583.959 589.530, 592.423 576.121 C 599.789 564.453, 615.636 564.698, 622.604 576.587 L 625.190 581 638.928 581 C 646.484 581, 652.917 580.749, 653.224 580.443 C 654.183 579.484, 650.979 568.787, 647.699 562 C 643.901 554.141, 634.526 544.353, 627.624 541.040 C 622.517 538.589, 612.267 536.026, 608 536.133 C 606.625 536.168, 602.800 536.731, 599.500 537.385 M 789.653 538.120 C 779.349 541.604, 770.841 548.448, 764.718 558.178 C 758.083 568.721, 756.508 573.326, 754.520 588 C 753.192 597.794, 753.957 612.931, 756.024 617.797 C 756.561 619.060, 757 620.792, 757 621.645 C 757 622.498, 758.841 626.964, 761.092 631.570 C 766.404 642.445, 775.033 651.450, 784.640 656.147 C 791.212 659.359, 791.983 659.500, 803 659.500 C 814.013 659.500, 814.790 659.358, 821.348 656.152 C 834.029 649.953, 844.054 637.269, 849.130 621 C 851.190 614.400, 851.463 611.580, 851.409 597.500 C 851.353 582.871, 851.119 580.836, 848.686 573.756 C 842.027 554.383, 830.679 542.349, 814.101 537.080 C 808.690 535.361, 796.248 535.890, 789.653 538.120 M 175.100 580.750 C 168.385 604.263, 160.635 631.085, 157.879 640.356 C 155.123 649.627, 153.108 657.839, 153.402 658.606 C 153.818 659.690, 156.557 659.997, 165.719 659.985 C 172.198 659.976, 178.175 659.544, 179 659.025 C 179.825 658.505, 181.625 654.124, 183 649.290 L 185.500 640.500 202.715 640.227 L 219.930 639.953 221.411 645.227 C 222.226 648.127, 223.371 652.366, 223.957 654.647 C 224.542 656.928, 225.729 659.066, 226.593 659.397 C 229.320 660.444, 251.837 660.073, 252.518 658.971 C 252.868 658.404, 252.216 654.917, 251.069 651.221 C 249.922 647.524, 248.485 642.700, 247.876 640.500 C 247.266 638.300, 246.422 635.375, 246 634 C 245.578 632.625, 244.678 629.475, 244 627 C 243.322 624.525, 242.383 621.375, 241.912 620 C 241.442 618.625, 236.315 600.625, 230.520 580 C 224.725 559.375, 219.547 541.487, 219.013 540.250 C 218.067 538.056, 217.658 538, 202.676 538 L 187.309 538 175.100 580.750 M 394.242 598.750 L 394.500 659.500 405 659.792 C 410.775 659.952, 416.506 659.833, 417.735 659.526 L 419.971 658.969 420.235 628.735 C 420.406 609.273, 420.856 598.562, 421.500 598.675 C 422.050 598.771, 422.833 600.121, 423.241 601.675 C 424.052 604.769, 432.588 636.764, 435.994 649.477 C 437.170 653.864, 438.607 658.026, 439.188 658.727 C 440.627 660.460, 458.018 660.480, 460.182 658.750 C 461.111 658.007, 464.882 645.738, 469.480 628.500 C 473.734 612.550, 477.617 599.073, 478.107 598.550 C 479.199 597.389, 479.138 595.277, 479.004 629.584 C 478.913 652.943, 479.138 657.870, 480.339 658.867 C 481.329 659.688, 485.518 659.976, 493.642 659.783 L 505.500 659.500 505.758 598.725 L 506.016 537.950 489.847 538.225 L 473.679 538.500 466.345 563 C 462.312 576.475, 458.270 589.975, 457.364 593 C 456.458 596.025, 454.844 601.425, 453.778 605 C 452.712 608.575, 451.646 612.113, 451.408 612.863 C 450.660 615.222, 448.582 612.518, 447.154 607.328 C 446.424 604.673, 445.448 601.375, 444.987 600 C 443.860 596.644, 437.252 575.051, 431.522 556 C 428.958 547.475, 426.680 539.938, 426.461 539.250 C 426.164 538.319, 421.976 538, 410.024 538 L 393.985 538 394.242 598.750 M 521.667 538.667 C 521.300 539.033, 521 565.943, 521 598.467 C 521 643.126, 521.294 657.894, 522.200 658.800 C 523.460 660.060, 543.408 660.548, 546.418 659.393 C 547.836 658.849, 548 652.541, 548 598.393 L 548 538 535.167 538 C 528.108 538, 522.033 538.300, 521.667 538.667 M 667.242 598.750 L 667.500 659.500 680 659.500 L 692.500 659.500 693 637.513 C 693.436 618.320, 693.705 615.486, 695.115 615.215 C 696.262 614.995, 697.397 616.583, 699.038 620.703 C 700.308 623.891, 702.350 628.750, 703.576 631.500 C 704.801 634.250, 707.911 641.447, 710.487 647.493 C 713.062 653.540, 715.694 658.820, 716.335 659.228 C 717.962 660.264, 741.200 660.160, 742.857 659.110 C 744.507 658.064, 744.048 656.454, 739.005 645.608 C 733.277 633.291, 724 612.749, 724 612.385 C 724 612.207, 726.395 610.529, 729.322 608.657 C 740.910 601.244, 746.979 584.578, 744.007 568.330 C 741.552 554.903, 735.032 545.832, 724.272 540.871 L 718.044 538 692.514 538 L 666.985 538 667.242 598.750 M 693.433 567.314 C 693.156 568.037, 693.057 573.550, 693.214 579.564 L 693.500 590.500 702.631 590.786 C 711.671 591.069, 711.786 591.043, 714.256 588.107 C 719.056 582.403, 718.590 572.182, 713.341 568.054 C 711.178 566.352, 709.289 566, 702.334 566 C 696.320 566, 693.794 566.373, 693.433 567.314 M 794.382 568.531 C 790.492 570.236, 786.293 575.129, 783.690 580.987 C 781.178 586.641, 780.279 601.212, 781.946 609.240 C 787.151 634.311, 816.361 635.908, 823.454 611.509 C 825.431 604.709, 825.441 590.849, 823.474 584.226 C 821.574 577.825, 816.537 571.050, 811.973 568.752 C 807.824 566.663, 798.896 566.551, 794.382 568.531 M 201.500 579.250 C 201.260 579.938, 200.149 583.987, 199.032 588.250 C 197.914 592.513, 196.079 599.445, 194.953 603.657 C 193.827 607.868, 193.138 611.918, 193.422 612.657 C 193.800 613.642, 196.314 614, 202.862 614 C 212.659 614, 213.635 613.392, 212.060 608.278 C 211.589 606.750, 210.200 601.675, 208.974 597 C 207.748 592.325, 206.095 586.138, 205.301 583.250 C 203.912 578.197, 202.418 576.625, 201.500 579.250 M 312.681 586.652 C 311.436 587.898, 311.904 611.504, 313.200 612.800 C 315.077 614.677, 371.342 614.497, 372.909 612.609 C 373.680 611.680, 373.970 607.118, 373.782 598.859 L 373.500 586.500 343.431 586.236 C 326.893 586.090, 313.056 586.278, 312.681 586.652" stroke="none" fill="#1a2e1f" fill-rule="evenodd"/><path d="M 2 500 L 2 1000 501 1000 L 1000 1000 1000 500 L 1000 0 501 0 L 2 0 2 500 M 233.069 263.958 C 232.069 264.575, 232.054 287.172, 232.993 376.615 C 233.638 438.152, 234.467 491.869, 234.833 495.988 C 235.392 502.267, 235.808 503.535, 237.410 503.842 C 239.279 504.200, 239.305 502.768, 238.658 435.354 C 236.963 258.959, 237.046 261.499, 233.069 263.958 M 398.127 263.922 C 397.207 264.490, 397.164 286.631, 397.938 361.079 C 399.090 471.861, 399.814 502.767, 401.280 503.673 C 404.368 505.582, 404.498 501.053, 403.759 416.903 C 403.351 370.481, 402.737 317.116, 402.394 298.313 C 401.762 263.680, 401.531 261.817, 398.127 263.922 M 562.308 264.639 C 561.962 265.540, 561.977 284.328, 562.341 306.389 C 562.706 328.450, 563.241 375.300, 563.531 410.500 C 564.178 488.987, 564.653 502.930, 566.709 503.718 C 569.608 504.831, 570.020 501.507, 569.405 482 C 569.066 471.275, 568.499 418.046, 568.145 363.713 C 567.582 277.465, 567.310 264.806, 566 263.979 C 563.858 262.625, 563.024 262.774, 562.308 264.639 M 212.613 330.566 C 211.739 332.843, 213.149 504, 214.042 504 C 216.517 504, 216.810 497.861, 217.378 434 C 218.066 356.691, 217.421 329.699, 214.876 329.212 C 213.983 329.042, 212.964 329.651, 212.613 330.566 M 253.359 331.706 C 252.297 335.938, 253.925 502.325, 255.039 503.439 C 258.247 506.647, 258.427 502.594, 258.837 418.038 C 259.060 371.875, 258.955 332.957, 258.603 331.553 C 257.712 328.005, 254.263 328.106, 253.359 331.706 M 377.377 331.635 C 376.366 335.662, 377.880 502.280, 378.937 503.337 C 379.426 503.826, 380.248 503.965, 380.764 503.646 C 381.978 502.896, 383.155 377.493, 382.207 350.012 C 381.578 331.791, 381.310 329.487, 379.786 329.195 C 378.614 328.971, 377.851 329.744, 377.377 331.635 M 419 415.941 C 419 501.955, 419.154 506.246, 422.126 503.274 C 423.316 502.084, 424.600 354.873, 423.552 339.750 C 422.884 330.109, 422.611 329, 420.904 329 C 419.047 329, 419 331.132, 419 415.941 M 542.614 330.563 C 541.826 332.617, 542.042 453.756, 542.885 482.419 C 543.300 496.549, 543.866 503.459, 544.627 503.711 C 545.247 503.917, 546.020 503.389, 546.346 502.540 C 547.313 500.020, 548.171 355.603, 547.300 342.011 C 546.639 331.686, 546.219 329.469, 544.876 329.212 C 543.983 329.042, 542.965 329.649, 542.614 330.563 M 584 415.941 C 584 477.468, 584.318 503.078, 585.087 503.554 C 585.685 503.923, 586.650 503.750, 587.231 503.169 C 588.440 501.960, 589.748 338.799, 588.597 332.665 C 588.084 329.930, 587.414 329, 585.955 329 C 584.030 329, 584 330.338, 584 415.941 M 191.693 410.692 C 191.430 411.686, 191.504 432.975, 191.858 458 C 192.488 502.619, 192.539 503.500, 194.500 503.500 C 196.472 503.500, 196.500 502.833, 196.500 456.500 L 196.500 409.500 194.336 409.192 C 192.922 408.990, 192.006 409.510, 191.693 410.692 M 274.456 410.072 C 273.283 411.969, 274.381 501.139, 275.598 502.803 C 278.709 507.058, 279 503.051, 279 455.941 C 279 410.142, 278.953 409, 277.059 409 C 275.991 409, 274.820 409.482, 274.456 410.072 M 357 455.871 C 357 487.448, 357.343 503.094, 358.044 503.527 C 358.618 503.882, 359.747 503.625, 360.554 502.955 C 361.810 501.913, 361.983 495.141, 361.760 455.619 L 361.500 409.500 359.250 409.180 L 357 408.861 357 455.871 M 439.308 410.639 C 438.335 413.176, 439.876 502.276, 440.911 503.311 C 443.730 506.130, 444 501.986, 444 455.941 C 444 409.425, 443.982 409, 441.969 409 C 440.851 409, 439.654 409.737, 439.308 410.639 M 522.240 456.179 C 522.496 502.747, 522.532 503.500, 524.500 503.500 C 526.472 503.500, 526.500 502.833, 526.500 456.500 L 526.500 409.500 524.240 409.179 L 521.980 408.858 522.240 456.179 M 604.366 410.488 C 604.023 411.383, 603.949 432.353, 604.201 457.088 C 604.548 490.975, 604.966 502.362, 605.898 503.281 C 609.172 506.508, 609.500 502.141, 609.500 455.393 L 609.500 409.500 607.246 409.180 C 605.866 408.984, 604.749 409.491, 604.366 410.488 M 172.337 455.264 C 171.204 457.097, 170.746 501.292, 171.843 502.896 C 172.368 503.663, 173.519 504.015, 174.399 503.677 C 175.805 503.138, 176 500.152, 176 479.138 C 176 459.027, 175.766 455.124, 174.532 454.651 C 173.725 454.341, 172.737 454.617, 172.337 455.264 M 296.176 455.224 C 295.342 456.058, 295 463.180, 295 479.731 C 295 500.202, 295.196 503.138, 296.601 503.677 C 297.481 504.015, 298.600 503.663, 299.086 502.896 C 299.572 502.128, 299.976 491.318, 299.985 478.872 C 299.997 461.303, 299.704 455.999, 298.676 455.146 C 297.710 454.344, 297.035 454.365, 296.176 455.224 M 502.688 454.646 C 502.309 455.024, 502 466.316, 502 479.740 C 502 502.446, 502.122 504.123, 503.750 503.810 C 505.360 503.500, 505.500 501.516, 505.500 479.070 C 505.500 455.895, 505.081 452.253, 502.688 454.646 M 626.294 455.294 C 625.148 457.088, 624.740 501.248, 625.855 502.896 C 626.374 503.663, 627.519 504.015, 628.399 503.677 C 629.805 503.138, 630 500.152, 630 479.138 C 630 459.027, 629.766 455.124, 628.532 454.651 C 627.725 454.341, 626.717 454.630, 626.294 455.294 M 336.648 460.250 C 335.697 468.166, 335.904 501.300, 336.914 502.896 C 337.400 503.663, 338.519 504.015, 339.399 503.677 C 340.806 503.137, 341 500.143, 341 479.031 C 341 456.266, 340.902 455, 339.139 455 C 337.641 455, 337.156 456.024, 336.648 460.250 M 460.487 457.250 C 460.183 458.488, 460.062 469.400, 460.217 481.500 C 460.490 502.739, 460.569 503.500, 462.500 503.500 C 464.438 503.500, 464.508 502.744, 464.768 479.250 C 465.029 455.583, 464.988 455, 463.037 455 C 461.794 455, 460.829 455.851, 460.487 457.250 M 151.688 469.646 C 151.309 470.024, 151 477.635, 151 486.560 C 151 500.011, 151.255 502.884, 152.490 503.358 C 154.734 504.219, 155.106 501.181, 154.787 484.582 C 154.519 470.652, 153.860 467.474, 151.688 469.646 M 316.623 470.540 C 316.280 471.433, 316 478.822, 316 486.959 C 316 498.839, 316.293 501.999, 317.488 502.990 C 318.681 503.981, 319.083 503.947, 319.515 502.822 C 320.579 500.049, 319.545 469.679, 318.373 469.290 C 317.753 469.084, 316.966 469.646, 316.623 470.540 M 481.688 469.646 C 480.637 470.696, 480.899 501.292, 481.974 502.992 C 484.294 506.661, 485.047 502.095, 484.776 486.007 C 484.517 470.702, 483.900 467.433, 481.688 469.646 M 646.798 485.014 C 646.634 493.821, 646.650 501.471, 646.833 502.014 C 647.017 502.556, 647.804 503, 648.583 503 C 649.750 503, 650 500, 650 486 C 650 471.804, 649.760 469, 648.548 469 C 647.351 469, 647.043 471.817, 646.798 485.014 M 257.687 533.647 C 257.309 534.024, 257 541.008, 257 549.167 L 257 564 262.800 564 C 265.990 564, 269.140 564.540, 269.800 565.200 C 270.699 566.099, 271 577.998, 271 612.593 C 271 653.793, 271.171 658.852, 272.582 659.393 C 274.627 660.178, 293.809 660.158, 296.757 659.368 L 299.015 658.763 298.757 596.131 L 298.500 533.500 278.437 533.230 C 267.402 533.081, 258.065 533.269, 257.687 533.647 M 599.500 537.385 C 585.756 540.108, 574.542 549.001, 568.001 562.366 C 562.684 573.230, 560.953 580.285, 560.278 593.843 C 558.811 623.298, 569.971 646.980, 589.705 656.291 C 596.122 659.318, 597.140 659.497, 608 659.498 C 619.001 659.500, 619.795 659.356, 626.305 656.173 C 638.343 650.286, 648.427 637.305, 652.145 622.904 C 654.151 615.137, 653.924 615, 639.044 615 L 626.025 615 623.632 618.750 C 616.318 630.213, 604.469 632.515, 595.658 624.186 C 585.655 614.729, 583.959 589.530, 592.423 576.121 C 599.789 564.453, 615.636 564.698, 622.604 576.587 L 625.190 581 638.928 581 C 646.484 581, 652.917 580.749, 653.224 580.443 C 654.183 579.484, 650.979 568.787, 647.699 562 C 643.901 554.141, 634.526 544.353, 627.624 541.040 C 622.517 538.589, 612.267 536.026, 608 536.133 C 606.625 536.168, 602.800 536.731, 599.500 537.385 M 789.653 538.120 C 779.349 541.604, 770.841 548.448, 764.718 558.178 C 758.083 568.721, 756.508 573.326, 754.520 588 C 753.192 597.794, 753.957 612.931, 756.024 617.797 C 756.561 619.060, 757 620.792, 757 621.645 C 757 622.498, 758.841 626.964, 761.092 631.570 C 766.404 642.445, 775.033 651.450, 784.640 656.147 C 791.212 659.359, 791.983 659.500, 803 659.500 C 814.013 659.500, 814.790 659.358, 821.348 656.152 C 834.029 649.953, 844.054 637.269, 849.130 621 C 851.190 614.400, 851.463 611.580, 851.409 597.500 C 851.353 582.871, 851.119 580.836, 848.686 573.756 C 842.027 554.383, 830.679 542.349, 814.101 537.080 C 808.690 535.361, 796.248 535.890, 789.653 538.120 M 175.100 580.750 C 168.385 604.263, 160.635 631.085, 157.879 640.356 C 155.123 649.627, 153.108 657.839, 153.402 658.606 C 153.818 659.690, 156.557 659.997, 165.719 659.985 C 172.198 659.976, 178.175 659.544, 179 659.025 C 179.825 658.505, 181.625 654.124, 183 649.290 L 185.500 640.500 202.715 640.227 L 219.930 639.953 221.411 645.227 C 222.226 648.127, 223.371 652.366, 223.957 654.647 C 224.542 656.928, 225.729 659.066, 226.593 659.397 C 229.320 660.444, 251.837 660.073, 252.518 658.971 C 252.868 658.404, 252.216 654.917, 251.069 651.221 C 249.922 647.524, 248.485 642.700, 247.876 640.500 C 247.266 638.300, 246.422 635.375, 246 634 C 245.578 632.625, 244.678 629.475, 244 627 C 243.322 624.525, 242.383 621.375, 241.912 620 C 241.442 618.625, 236.315 600.625, 230.520 580 C 224.725 559.375, 219.547 541.487, 219.013 540.250 C 218.067 538.056, 217.658 538, 202.676 538 L 187.309 538 175.100 580.750 M 394.242 598.750 L 394.500 659.500 405 659.792 C 410.775 659.952, 416.506 659.833, 417.735 659.526 L 419.971 658.969 420.235 628.735 C 420.406 609.273, 420.856 598.562, 421.500 598.675 C 422.050 598.771, 422.833 600.121, 423.241 601.675 C 424.052 604.769, 432.588 636.764, 435.994 649.477 C 437.170 653.864, 438.607 658.026, 439.188 658.727 C 440.627 660.460, 458.018 660.480, 460.182 658.750 C 461.111 658.007, 464.882 645.738, 469.480 628.500 C 473.734 612.550, 477.617 599.073, 478.107 598.550 C 479.199 597.389, 479.138 595.277, 479.004 629.584 C 478.913 652.943, 479.138 657.870, 480.339 658.867 C 481.329 659.688, 485.518 659.976, 493.642 659.783 L 505.500 659.500 505.758 598.725 L 506.016 537.950 489.847 538.225 L 473.679 538.500 466.345 563 C 462.312 576.475, 458.270 589.975, 457.364 593 C 456.458 596.025, 454.844 601.425, 453.778 605 C 452.712 608.575, 451.646 612.113, 451.408 612.863 C 450.660 615.222, 448.582 612.518, 447.154 607.328 C 446.424 604.673, 445.448 601.375, 444.987 600 C 443.860 596.644, 437.252 575.051, 431.522 556 C 428.958 547.475, 426.680 539.938, 426.461 539.250 C 426.164 538.319, 421.976 538, 410.024 538 L 393.985 538 394.242 598.750 M 521.667 538.667 C 521.300 539.033, 521 565.943, 521 598.467 C 521 643.126, 521.294 657.894, 522.200 658.800 C 523.460 660.060, 543.408 660.548, 546.418 659.393 C 547.836 658.849, 548 652.541, 548 598.393 L 548 538 535.167 538 C 528.108 538, 522.033 538.300, 521.667 538.667 M 667.242 598.750 L 667.500 659.500 680 659.500 L 692.500 659.500 693 637.513 C 693.436 618.320, 693.705 615.486, 695.115 615.215 C 696.262 614.995, 697.397 616.583, 699.038 620.703 C 700.308 623.891, 702.350 628.750, 703.576 631.500 C 704.801 634.250, 707.911 641.447, 710.487 647.493 C 713.062 653.540, 715.694 658.820, 716.335 659.228 C 717.962 660.264, 741.200 660.160, 742.857 659.110 C 744.507 658.064, 744.048 656.454, 739.005 645.608 C 733.277 633.291, 724 612.749, 724 612.385 C 724 612.207, 726.395 610.529, 729.322 608.657 C 740.910 601.244, 746.979 584.578, 744.007 568.330 C 741.552 554.903, 735.032 545.832, 724.272 540.871 L 718.044 538 692.514 538 L 666.985 538 667.242 598.750 M 693.433 567.314 C 693.156 568.037, 693.057 573.550, 693.214 579.564 L 693.500 590.500 702.631 590.786 C 711.671 591.069, 711.786 591.043, 714.256 588.107 C 719.056 582.403, 718.590 572.182, 713.341 568.054 C 711.178 566.352, 709.289 566, 702.334 566 C 696.320 566, 693.794 566.373, 693.433 567.314 M 794.382 568.531 C 790.492 570.236, 786.293 575.129, 783.690 580.987 C 781.178 586.641, 780.279 601.212, 781.946 609.240 C 787.151 634.311, 816.361 635.908, 823.454 611.509 C 825.431 604.709, 825.441 590.849, 823.474 584.226 C 821.574 577.825, 816.537 571.050, 811.973 568.752 C 807.824 566.663, 798.896 566.551, 794.382 568.531 M 201.500 579.250 C 201.260 579.938, 200.149 583.987, 199.032 588.250 C 197.914 592.513, 196.079 599.445, 194.953 603.657 C 193.827 607.868, 193.138 611.918, 193.422 612.657 C 193.800 613.642, 196.314 614, 202.862 614 C 212.659 614, 213.635 613.392, 212.060 608.278 C 211.589 606.750, 210.200 601.675, 208.974 597 C 207.748 592.325, 206.095 586.138, 205.301 583.250 C 203.912 578.197, 202.418 576.625, 201.500 579.250 M 312.681 586.652 C 311.436 587.898, 311.904 611.504, 313.200 612.800 C 315.077 614.677, 371.342 614.497, 372.909 612.609 C 373.680 611.680, 373.970 607.118, 373.782 598.859 L 373.500 586.500 343.431 586.236 C 326.893 586.090, 313.056 586.278, 312.681 586.652" stroke="none" fill="#a3ca6b" fill-rule="evenodd"/><title>a1-micro.com</title></svg>
