<?xml version="1.0"?>
<svg xmlns="http://www.w3.org/2000/svg" width="1000" height="1000" viewBox="0 0 1000 1000" version="1.2" baseProfile="tiny-ps"><path d="M 630.500 437.912 L 604.500 438.500 604.844 547 C 605.222 666.580, 604.773 658.513, 611.323 663.395 L 614.147 665.500 745 665.500 C 875.639 665.500, 875.858 665.497, 878.677 663.435 C 880.230 662.300, 882.400 659.600, 883.500 657.435 C 885.481 653.537, 885.675 650.286, 885.996 615.500 C 886.001 614.950, 888.972 612.700, 892.599 610.500 C 903.711 603.759, 914.548 590.283, 918.167 578.705 C 920.081 572.585, 921.998 561.472, 921.998 556.500 C 921.998 550.254, 919.617 538.638, 916.946 531.863 C 912.463 520.488, 902.320 508.455, 892.585 502.961 C 886.244 499.382, 885.001 497.289, 884.998 490.185 C 884.997 484.634, 882.584 479.437, 878.677 476.571 C 875.883 474.521, 875.017 474.497, 792.531 474.228 C 724.078 474.004, 709.008 473.715, 708.088 472.607 C 707.473 471.865, 706.043 467.712, 704.912 463.379 C 701.103 448.782, 697.926 443.572, 690.500 439.742 C 685.785 437.311, 673.547 436.937, 630.500 437.912 M 611.607 446.582 C 611.273 447.452, 611 453.495, 611 460.010 C 611 469.533, 611.314 472.171, 612.599 473.456 C 614.011 474.868, 617.536 475.002, 642.849 474.602 C 658.607 474.353, 677.964 474.115, 685.863 474.074 L 700.227 474 699.726 471.250 C 697.087 456.769, 692.604 448.374, 686.185 445.894 C 684.912 445.402, 667.747 445, 648.042 445 C 616.294 445, 612.145 445.180, 611.607 446.582 M 611.630 484.250 C 610.819 487.277, 610.842 571.559, 611.667 617.415 C 612.277 651.374, 612.477 654.477, 614.165 656.165 C 615.926 657.926, 621.199 658, 744.826 658 L 873.651 658 875.826 655.686 C 877.891 653.487, 878 652.474, 878 635.436 L 878.001 617.500 866.250 617.489 C 852.426 617.477, 846.472 615.715, 836 608.535 C 825.323 601.214, 817.921 591.113, 812.892 577 C 810.907 571.431, 810.575 568.566, 810.569 557 C 810.564 547.195, 811.015 542.074, 812.215 538.289 C 816.931 523.427, 825.430 511.864, 837.341 504.104 C 847.400 497.550, 853.643 495.772, 866.750 495.731 L 878 495.695 878 490.404 C 878 481.183, 891.132 482, 742.894 482 L 612.233 482 611.630 484.250 M 247.365 498.033 C 238.554 500.744, 229.338 510.341, 226.902 519.343 C 225.247 525.461, 226.273 535.825, 229.094 541.473 C 232.262 547.818, 239.772 554.429, 246.280 556.603 C 255.613 559.720, 273.583 558.124, 280.551 553.559 C 282.813 552.076, 283 551.341, 283 543.927 C 283 538.557, 283.525 534.886, 284.585 532.835 C 285.556 530.958, 285.812 529.412, 285.245 528.845 C 284.737 528.337, 280.086 528.051, 274.910 528.210 L 265.500 528.500 265.212 537.796 C 264.880 548.495, 264.276 549.202, 258.140 546.071 C 251.989 542.934, 249 537.116, 249 528.284 C 249 524.301, 249.649 519.692, 250.494 517.668 C 253.839 509.663, 261.730 505.810, 270.311 507.993 C 274.664 509.099, 275.256 509.039, 276.529 507.358 C 279.116 503.942, 278.285 502.016, 273.250 499.755 C 267.897 497.352, 252.836 496.350, 247.365 498.033 M 359.949 498.450 C 358.913 499.487, 358.593 553.776, 359.607 556.418 C 360.324 558.287, 365.062 558.538, 366.800 556.800 C 367.603 555.997, 368 551.533, 368 543.300 C 368 536.535, 368.337 531.018, 368.750 531.040 C 369.163 531.062, 373.256 536.912, 377.846 544.040 C 382.436 551.168, 386.711 556.973, 387.346 556.941 C 388.446 556.884, 402.154 536.418, 403.549 532.750 C 403.915 531.788, 404.841 531, 405.607 531 C 406.720 531, 407 533.398, 407 542.918 C 407 549.473, 407.273 555.548, 407.607 556.418 C 408.430 558.564, 426.135 558.747, 427.893 556.629 C 428.700 555.657, 428.954 546.981, 428.766 526.879 L 428.500 498.500 421.653 498 C 417.887 497.725, 414.368 497.771, 413.834 498.102 C 413.300 498.432, 408.941 504.957, 404.149 512.602 C 399.356 520.246, 394.923 526.500, 394.297 526.500 C 393.672 526.500, 388.961 520.200, 383.830 512.500 L 374.500 498.500 367.699 498 C 363.958 497.725, 360.470 497.928, 359.949 498.450 M 451.820 498.712 C 451.126 499.552, 451.613 501.660, 453.409 505.583 C 454.834 508.695, 456 511.870, 456 512.639 C 456 513.407, 451.892 523.228, 446.872 534.463 C 441.739 545.949, 438.005 555.571, 438.341 556.445 C 438.959 558.056, 443.593 558.558, 445.632 557.235 C 446.255 556.831, 447.607 554.700, 448.638 552.500 L 450.511 548.500 460.720 548.215 L 470.929 547.931 473.215 552.715 L 475.500 557.500 486.101 557.782 C 493.812 557.988, 496.978 557.715, 497.717 556.782 C 498.449 555.857, 495.202 547.575, 486.039 527 L 473.346 498.500 463.084 498 C 455.735 497.642, 452.538 497.844, 451.820 498.712 M 541.949 498.450 C 541.394 499.005, 541 511.364, 541 528.181 L 541 556.962 543.250 557.515 C 544.487 557.820, 553.825 557.941, 564 557.784 L 582.500 557.500 582.500 553 L 582.500 548.500 573.508 548.208 C 568.562 548.047, 564.127 547.527, 563.653 547.053 C 563.179 546.579, 562.844 535.911, 562.907 523.346 C 562.971 510.781, 562.634 499.906, 562.159 499.179 C 561.124 497.597, 543.437 496.960, 541.949 498.450 M 89.780 526.653 C 89.596 545.511, 89.859 555.795, 90.549 556.738 C 91.170 557.586, 92.804 558.034, 94.549 557.836 L 97.500 557.500 97.778 543.750 C 97.931 536.188, 98.381 530.003, 98.778 530.006 C 99.175 530.010, 103.451 536.085, 108.279 543.506 C 113.108 550.928, 117.506 557, 118.054 557 C 118.602 557, 123.063 550.822, 127.969 543.272 C 133.608 534.593, 137.088 530.088, 137.432 531.022 C 137.731 531.835, 138.093 538.125, 138.238 545 L 138.500 557.500 148.500 557.500 L 158.500 557.500 158.765 527.750 L 159.030 498 151.765 498.003 L 144.500 498.006 136.310 510.753 C 131.806 517.764, 127.820 524.288, 127.453 525.250 C 127.086 526.212, 126.205 527, 125.494 527 C 124.784 527, 119.995 520.495, 114.851 512.545 L 105.500 498.090 97.780 498.045 L 90.060 498 89.780 526.653 M 173.235 527.731 L 173.500 557.500 194.873 557.770 C 210.225 557.964, 216.648 557.707, 217.674 556.856 C 218.552 556.127, 218.985 554.291, 218.801 552.086 L 218.500 548.500 206.500 548 L 194.500 547.500 194.206 540.250 L 193.912 533 202.206 532.985 C 206.768 532.976, 211.094 532.593, 211.819 532.133 C 212.646 531.609, 213.019 529.841, 212.819 527.398 L 212.500 523.500 203.500 523 L 194.500 522.500 194.500 515.500 L 194.500 508.500 205.441 508.214 C 211.664 508.052, 216.968 507.442, 217.741 506.800 C 218.551 506.128, 218.979 504.220, 218.801 502.086 L 218.500 498.500 195.735 498.231 L 172.970 497.962 173.235 527.731 M 304 499.564 C 304 500.424, 305.151 503.644, 306.557 506.719 C 309.399 512.932, 309.522 512.146, 303.707 525 C 302.090 528.575, 298.987 535.550, 296.812 540.500 C 294.637 545.450, 292.237 550.761, 291.480 552.301 C 289.582 556.160, 290.552 558, 294.485 558 C 297.980 558, 299.321 556.864, 301.882 551.738 L 303.500 548.500 313.500 548.500 L 323.500 548.500 325.118 551.738 C 328.209 557.926, 328.381 558, 339.654 558 C 347.592 558, 350.189 557.672, 350.593 556.617 C 351.117 555.254, 349.035 549.732, 343.195 537 C 341.555 533.425, 339.215 528.250, 337.995 525.500 C 336.775 522.750, 334.768 518.250, 333.536 515.500 C 332.304 512.750, 330.043 507.688, 328.512 504.250 L 325.727 498 314.863 498 C 305.676 498, 304 498.241, 304 499.564 M 506.699 498.634 C 505.399 499.934, 505.877 555.477, 507.200 556.800 C 508.960 558.560, 525.410 558.416, 526.893 556.629 C 527.700 555.657, 527.954 546.981, 527.766 526.879 L 527.500 498.500 517.449 498.217 C 511.922 498.062, 507.084 498.249, 506.699 498.634 M 310.445 530.529 C 309.100 533.569, 308 536.494, 308 537.029 C 308 537.563, 310.475 538, 313.500 538 C 316.525 538, 319 537.606, 319 537.124 C 319 535.743, 314.089 525, 313.458 525 C 313.145 525, 311.790 527.488, 310.445 530.529 M 459.094 527.250 C 458.623 528.487, 457.548 531.151, 456.704 533.168 C 455.860 535.186, 455.432 537.099, 455.752 537.418 C 456.708 538.374, 466 538.076, 466 537.089 C 466 535.132, 461.672 525, 460.836 525 C 460.349 525, 459.565 526.013, 459.094 527.250 M 242.174 579.314 C 239.433 582.232, 239.324 587.324, 241.947 589.947 C 243.018 591.018, 245.742 592.392, 248 593 C 251.990 594.074, 256 597.046, 256 598.929 C 256 602.694, 247.415 604.380, 243.215 601.438 C 241.180 600.012, 240.929 600.021, 240.347 601.539 C 239.612 603.453, 241.030 604.576, 245.939 605.968 C 252.614 607.861, 259 604.209, 259 598.500 C 259 594.582, 256.086 591.828, 250 589.995 C 244.195 588.247, 243 587.284, 243 584.356 C 243 580.900, 246.942 579.305, 252.087 580.678 C 254.510 581.325, 256.270 581.372, 256.623 580.801 C 257.683 579.086, 253.552 577.064, 248.924 577.032 C 245.408 577.007, 243.845 577.536, 242.174 579.314 M 263.607 578.582 C 263.273 579.452, 263 585.265, 263 591.500 C 263 597.735, 263.273 603.548, 263.607 604.418 C 264.094 605.688, 265.883 606, 272.690 606 C 279.024 606, 281.063 605.684, 280.755 604.750 C 280.517 604.027, 278.269 603.390, 275.422 603.239 C 267.106 602.797, 266 602.307, 266 599.063 C 266 593.702, 266.765 593, 272.607 593 C 276.734 593, 278 592.648, 278 591.500 C 278 590.375, 276.800 590, 273.200 590 C 267.747 590, 266 588.768, 266 584.922 C 266 581.241, 267.665 580.171, 273.952 579.810 C 277.137 579.627, 279.511 578.989, 279.755 578.250 C 280.061 577.320, 278.124 577, 272.190 577 C 265.839 577, 264.090 577.322, 263.607 578.582 M 286.437 578.303 C 285.513 580.711, 286.471 604.999, 287.500 605.253 C 288.094 605.400, 288.703 601.350, 289 595.282 C 289.330 588.545, 289.852 585.309, 290.533 585.782 C 291.101 586.177, 293.320 588.975, 295.463 592 C 308.018 609.717, 309 609.676, 309 591.437 C 309 583.477, 308.607 578.875, 307.888 578.431 C 305.872 577.185, 305.031 580.379, 304.975 589.500 L 304.919 598.500 301.870 595 C 300.194 593.075, 296.598 588.237, 293.881 584.250 C 288.978 577.057, 287.399 575.796, 286.437 578.303 M 315.437 578.303 C 315.162 579.019, 315.064 585.432, 315.219 592.553 L 315.500 605.500 321.500 605.770 C 326.082 605.976, 328.262 605.570, 330.724 604.051 C 338.720 599.116, 338.947 584.659, 331.117 579.083 C 327.642 576.609, 316.304 576.045, 315.437 578.303 M 351.501 578.136 C 350.532 580.661, 351.428 604.989, 352.500 605.253 C 353.855 605.588, 354.398 578.998, 353.063 577.663 C 352.400 577, 351.877 577.158, 351.501 578.136 M 358.232 578.214 C 358.464 578.921, 360.190 579.649, 362.068 579.831 C 363.946 580.014, 365.817 580.689, 366.226 581.331 C 366.635 581.974, 366.976 587.563, 366.985 593.750 C 366.997 602.972, 367.265 605, 368.469 605 C 369.666 605, 369.990 602.731, 370.219 592.750 L 370.500 580.500 374.283 580 C 381.831 579.002, 378.528 577.501, 368.155 577.214 C 360.075 576.991, 357.902 577.210, 358.232 578.214 M 397.437 578.303 C 396.503 580.737, 397.468 605.006, 398.500 605.022 C 399.050 605.031, 399.725 602.442, 400 599.269 L 400.500 593.500 406 593 C 409.025 592.725, 411.500 592.050, 411.500 591.500 C 411.500 590.950, 409.025 590.275, 406 590 L 400.500 589.500 400.500 585 L 400.500 580.500 406.922 580 C 410.786 579.699, 413.508 579.002, 413.755 578.250 C 414.355 576.428, 398.136 576.481, 397.437 578.303 M 422.722 579.135 C 412.227 586.964, 417.139 606.648, 429.501 606.297 C 439.154 606.024, 445.251 592.956, 439.903 584 C 438.753 582.075, 436.842 579.723, 435.656 578.772 C 432.661 576.372, 426.183 576.554, 422.722 579.135 M 446.607 578.582 C 446.273 579.452, 446 585.785, 446 592.655 C 446 604.012, 446.159 605.116, 447.750 604.814 C 449.011 604.575, 449.640 603.226, 450 599.991 C 450.440 596.036, 450.815 595.464, 453.134 595.195 C 455.892 594.875, 457.785 596.683, 461.203 602.902 C 462.140 604.606, 463.378 606, 463.953 606 C 465.640 606, 465.116 602.706, 463 600 C 460.675 597.028, 460.437 594.153, 462.452 593.380 C 464.319 592.664, 466.328 586.609, 465.531 584.098 C 465.194 583.035, 464.003 581.003, 462.886 579.582 C 461.057 577.257, 460.177 577, 454.034 577 C 448.738 577, 447.078 577.353, 446.607 578.582 M 474.722 579.135 C 470.834 582.036, 468.994 586.098, 469.033 591.700 C 469.076 597.835, 472.972 603.835, 478.206 605.827 C 481.411 607.047, 482.255 607.019, 485.105 605.597 C 486.892 604.706, 489.174 604.238, 490.176 604.556 C 491.813 605.075, 492 604.471, 492 598.674 C 492 591.940, 491.377 591, 486.918 591 C 484.173 591, 484.550 593.474, 487.500 594.818 C 490.748 596.298, 490.667 598.329, 487.250 601.023 C 483.669 603.846, 477.576 603.251, 475.152 599.841 C 468.145 589.988, 475.703 576.090, 485.316 581.150 C 486.517 581.782, 487.819 582.791, 488.208 583.391 C 488.715 584.172, 489.249 584.151, 490.081 583.319 C 490.967 582.433, 490.629 581.538, 488.668 579.577 C 485.360 576.269, 478.841 576.063, 474.722 579.135 M 497.607 578.582 C 496.697 580.954, 496.906 603.303, 497.852 604.795 C 498.439 605.720, 500.932 606.006, 506.587 605.795 C 516.272 605.434, 516.693 603.697, 507.265 603 C 500.582 602.506, 500.499 602.464, 500.396 599.548 C 500.196 593.840, 500.823 593.120, 506.275 592.799 C 513.187 592.391, 513.982 590, 507.206 590 C 504.419 590, 501.822 589.452, 501.280 588.750 C 500.481 587.716, 500.289 583.970, 500.871 580.798 C 500.942 580.411, 503.777 579.961, 507.171 579.798 C 510.991 579.613, 513.498 579.024, 513.754 578.250 C 514.061 577.320, 512.125 577, 506.190 577 C 499.839 577, 498.090 577.322, 497.607 578.582 M 518.694 577.639 C 517.501 578.832, 519.106 580, 521.937 580 C 526.397 580, 527.129 581.834, 526.997 592.673 C 526.839 605.521, 526.777 605, 528.469 605 C 529.666 605, 529.990 602.731, 530.219 592.750 L 530.500 580.500 534.250 580.190 C 536.703 579.987, 538 579.381, 538 578.440 C 538 577.290, 536.122 577, 528.667 577 C 523.533 577, 519.046 577.288, 518.694 577.639 M 551.683 577.650 C 551.308 578.026, 551 584.366, 551 591.740 C 551 603.535, 551.194 605.108, 552.611 604.823 C 553.993 604.546, 554.219 602.675, 554.203 591.641 C 554.185 579.840, 553.469 575.865, 551.683 577.650 M 558.517 577.972 C 557.784 579.159, 559.180 579.785, 563.500 580.207 L 566.500 580.500 566.747 591 C 567.024 602.732, 567.597 606.367, 569.029 605.482 C 569.564 605.151, 570 599.803, 570 593.563 C 570 581.391, 570.367 580.437, 575.281 579.838 C 576.811 579.652, 578.050 579.050, 578.036 578.500 C 578 577.123, 559.354 576.618, 558.517 577.972 M 450.364 580.493 C 450.101 581.178, 450.024 584.160, 450.193 587.119 C 450.466 591.901, 450.762 592.537, 452.852 592.833 C 456.655 593.371, 459.860 592.143, 461.606 589.478 C 462.982 587.378, 463.043 586.518, 461.992 583.981 C 461.297 582.302, 459.810 580.786, 458.623 580.548 C 452.622 579.342, 450.811 579.330, 450.364 580.493 M 318.667 580.667 C 318.300 581.033, 318 586.208, 318 592.167 L 318 603 322.365 603 C 327.760 603, 331.557 600.265, 332.896 595.414 C 335.177 587.154, 330.625 580, 323.090 580 C 321.024 580, 319.033 580.300, 318.667 580.667 M 425.407 580.973 C 422.951 581.966, 420 587.675, 420 591.433 C 420 595.241, 422.509 600.667, 424.850 601.920 C 432.538 606.034, 440.540 597.435, 437.956 587.835 C 436.282 581.619, 430.980 578.720, 425.407 580.973" stroke="none" fill="#daccb4" fill-rule="evenodd"/><path d="M 0 500.001 L 0 1000.002 500.250 999.751 L 1000.500 999.500 1000.751 499.750 L 1001.002 0 500.501 0 L 0 0 0 500.001 M 0.496 500.500 C 0.496 775.500, 0.610 887.851, 0.750 750.168 C 0.890 612.486, 0.890 387.486, 0.750 250.168 C 0.610 112.851, 0.496 225.500, 0.496 500.500 M 630.500 437.912 L 604.500 438.500 604.844 547 C 605.222 666.580, 604.773 658.513, 611.323 663.395 L 614.147 665.500 745 665.500 C 875.639 665.500, 875.858 665.497, 878.677 663.435 C 880.230 662.300, 882.400 659.600, 883.500 657.435 C 885.481 653.537, 885.675 650.286, 885.996 615.500 C 886.001 614.950, 888.972 612.700, 892.599 610.500 C 903.711 603.759, 914.548 590.283, 918.167 578.705 C 920.081 572.585, 921.998 561.472, 921.998 556.500 C 921.998 550.254, 919.617 538.638, 916.946 531.863 C 912.463 520.488, 902.320 508.455, 892.585 502.961 C 886.244 499.382, 885.001 497.289, 884.998 490.185 C 884.997 484.634, 882.584 479.437, 878.677 476.571 C 875.883 474.521, 875.017 474.497, 792.531 474.228 C 724.078 474.004, 709.008 473.715, 708.088 472.607 C 707.473 471.865, 706.043 467.712, 704.912 463.379 C 701.103 448.782, 697.926 443.572, 690.500 439.742 C 685.785 437.311, 673.547 436.937, 630.500 437.912 M 611.607 446.582 C 611.273 447.452, 611 453.495, 611 460.010 C 611 469.533, 611.314 472.171, 612.599 473.456 C 614.011 474.868, 617.536 475.002, 642.849 474.602 C 658.607 474.353, 677.964 474.115, 685.863 474.074 L 700.227 474 699.726 471.250 C 697.087 456.769, 692.604 448.374, 686.185 445.894 C 684.912 445.402, 667.747 445, 648.042 445 C 616.294 445, 612.145 445.180, 611.607 446.582 M 611.630 484.250 C 610.819 487.277, 610.842 571.559, 611.667 617.415 C 612.277 651.374, 612.477 654.477, 614.165 656.165 C 615.926 657.926, 621.199 658, 744.826 658 L 873.651 658 875.826 655.686 C 877.891 653.487, 878 652.474, 878 635.436 L 878.001 617.500 866.250 617.489 C 852.426 617.477, 846.472 615.715, 836 608.535 C 825.323 601.214, 817.921 591.113, 812.892 577 C 810.907 571.431, 810.575 568.566, 810.569 557 C 810.564 547.195, 811.015 542.074, 812.215 538.289 C 816.931 523.427, 825.430 511.864, 837.341 504.104 C 847.400 497.550, 853.643 495.772, 866.750 495.731 L 878 495.695 878 490.404 C 878 481.183, 891.132 482, 742.894 482 L 612.233 482 611.630 484.250 M 247.365 498.033 C 238.554 500.744, 229.338 510.341, 226.902 519.343 C 225.247 525.461, 226.273 535.825, 229.094 541.473 C 232.262 547.818, 239.772 554.429, 246.280 556.603 C 255.613 559.720, 273.583 558.124, 280.551 553.559 C 282.813 552.076, 283 551.341, 283 543.927 C 283 538.557, 283.525 534.886, 284.585 532.835 C 285.556 530.958, 285.812 529.412, 285.245 528.845 C 284.737 528.337, 280.086 528.051, 274.910 528.210 L 265.500 528.500 265.212 537.796 C 264.880 548.495, 264.276 549.202, 258.140 546.071 C 251.989 542.934, 249 537.116, 249 528.284 C 249 524.301, 249.649 519.692, 250.494 517.668 C 253.839 509.663, 261.730 505.810, 270.311 507.993 C 274.664 509.099, 275.256 509.039, 276.529 507.358 C 279.116 503.942, 278.285 502.016, 273.250 499.755 C 267.897 497.352, 252.836 496.350, 247.365 498.033 M 359.949 498.450 C 358.913 499.487, 358.593 553.776, 359.607 556.418 C 360.324 558.287, 365.062 558.538, 366.800 556.800 C 367.603 555.997, 368 551.533, 368 543.300 C 368 536.535, 368.337 531.018, 368.750 531.040 C 369.163 531.062, 373.256 536.912, 377.846 544.040 C 382.436 551.168, 386.711 556.973, 387.346 556.941 C 388.446 556.884, 402.154 536.418, 403.549 532.750 C 403.915 531.788, 404.841 531, 405.607 531 C 406.720 531, 407 533.398, 407 542.918 C 407 549.473, 407.273 555.548, 407.607 556.418 C 408.430 558.564, 426.135 558.747, 427.893 556.629 C 428.700 555.657, 428.954 546.981, 428.766 526.879 L 428.500 498.500 421.653 498 C 417.887 497.725, 414.368 497.771, 413.834 498.102 C 413.300 498.432, 408.941 504.957, 404.149 512.602 C 399.356 520.246, 394.923 526.500, 394.297 526.500 C 393.672 526.500, 388.961 520.200, 383.830 512.500 L 374.500 498.500 367.699 498 C 363.958 497.725, 360.470 497.928, 359.949 498.450 M 451.820 498.712 C 451.126 499.552, 451.613 501.660, 453.409 505.583 C 454.834 508.695, 456 511.870, 456 512.639 C 456 513.407, 451.892 523.228, 446.872 534.463 C 441.739 545.949, 438.005 555.571, 438.341 556.445 C 438.959 558.056, 443.593 558.558, 445.632 557.235 C 446.255 556.831, 447.607 554.700, 448.638 552.500 L 450.511 548.500 460.720 548.215 L 470.929 547.931 473.215 552.715 L 475.500 557.500 486.101 557.782 C 493.812 557.988, 496.978 557.715, 497.717 556.782 C 498.449 555.857, 495.202 547.575, 486.039 527 L 473.346 498.500 463.084 498 C 455.735 497.642, 452.538 497.844, 451.820 498.712 M 541.949 498.450 C 541.394 499.005, 541 511.364, 541 528.181 L 541 556.962 543.250 557.515 C 544.487 557.820, 553.825 557.941, 564 557.784 L 582.500 557.500 582.500 553 L 582.500 548.500 573.508 548.208 C 568.562 548.047, 564.127 547.527, 563.653 547.053 C 563.179 546.579, 562.844 535.911, 562.907 523.346 C 562.971 510.781, 562.634 499.906, 562.159 499.179 C 561.124 497.597, 543.437 496.960, 541.949 498.450 M 89.780 526.653 C 89.596 545.511, 89.859 555.795, 90.549 556.738 C 91.170 557.586, 92.804 558.034, 94.549 557.836 L 97.500 557.500 97.778 543.750 C 97.931 536.188, 98.381 530.003, 98.778 530.006 C 99.175 530.010, 103.451 536.085, 108.279 543.506 C 113.108 550.928, 117.506 557, 118.054 557 C 118.602 557, 123.063 550.822, 127.969 543.272 C 133.608 534.593, 137.088 530.088, 137.432 531.022 C 137.731 531.835, 138.093 538.125, 138.238 545 L 138.500 557.500 148.500 557.500 L 158.500 557.500 158.765 527.750 L 159.030 498 151.765 498.003 L 144.500 498.006 136.310 510.753 C 131.806 517.764, 127.820 524.288, 127.453 525.250 C 127.086 526.212, 126.205 527, 125.494 527 C 124.784 527, 119.995 520.495, 114.851 512.545 L 105.500 498.090 97.780 498.045 L 90.060 498 89.780 526.653 M 173.235 527.731 L 173.500 557.500 194.873 557.770 C 210.225 557.964, 216.648 557.707, 217.674 556.856 C 218.552 556.127, 218.985 554.291, 218.801 552.086 L 218.500 548.500 206.500 548 L 194.500 547.500 194.206 540.250 L 193.912 533 202.206 532.985 C 206.768 532.976, 211.094 532.593, 211.819 532.133 C 212.646 531.609, 213.019 529.841, 212.819 527.398 L 212.500 523.500 203.500 523 L 194.500 522.500 194.500 515.500 L 194.500 508.500 205.441 508.214 C 211.664 508.052, 216.968 507.442, 217.741 506.800 C 218.551 506.128, 218.979 504.220, 218.801 502.086 L 218.500 498.500 195.735 498.231 L 172.970 497.962 173.235 527.731 M 304 499.564 C 304 500.424, 305.151 503.644, 306.557 506.719 C 309.399 512.932, 309.522 512.146, 303.707 525 C 302.090 528.575, 298.987 535.550, 296.812 540.500 C 294.637 545.450, 292.237 550.761, 291.480 552.301 C 289.582 556.160, 290.552 558, 294.485 558 C 297.980 558, 299.321 556.864, 301.882 551.738 L 303.500 548.500 313.500 548.500 L 323.500 548.500 325.118 551.738 C 328.209 557.926, 328.381 558, 339.654 558 C 347.592 558, 350.189 557.672, 350.593 556.617 C 351.117 555.254, 349.035 549.732, 343.195 537 C 341.555 533.425, 339.215 528.250, 337.995 525.500 C 336.775 522.750, 334.768 518.250, 333.536 515.500 C 332.304 512.750, 330.043 507.688, 328.512 504.250 L 325.727 498 314.863 498 C 305.676 498, 304 498.241, 304 499.564 M 506.699 498.634 C 505.399 499.934, 505.877 555.477, 507.200 556.800 C 508.960 558.560, 525.410 558.416, 526.893 556.629 C 527.700 555.657, 527.954 546.981, 527.766 526.879 L 527.500 498.500 517.449 498.217 C 511.922 498.062, 507.084 498.249, 506.699 498.634 M 310.445 530.529 C 309.100 533.569, 308 536.494, 308 537.029 C 308 537.563, 310.475 538, 313.500 538 C 316.525 538, 319 537.606, 319 537.124 C 319 535.743, 314.089 525, 313.458 525 C 313.145 525, 311.790 527.488, 310.445 530.529 M 459.094 527.250 C 458.623 528.487, 457.548 531.151, 456.704 533.168 C 455.860 535.186, 455.432 537.099, 455.752 537.418 C 456.708 538.374, 466 538.076, 466 537.089 C 466 535.132, 461.672 525, 460.836 525 C 460.349 525, 459.565 526.013, 459.094 527.250 M 242.174 579.314 C 239.433 582.232, 239.324 587.324, 241.947 589.947 C 243.018 591.018, 245.742 592.392, 248 593 C 251.990 594.074, 256 597.046, 256 598.929 C 256 602.694, 247.415 604.380, 243.215 601.438 C 241.180 600.012, 240.929 600.021, 240.347 601.539 C 239.612 603.453, 241.030 604.576, 245.939 605.968 C 252.614 607.861, 259 604.209, 259 598.500 C 259 594.582, 256.086 591.828, 250 589.995 C 244.195 588.247, 243 587.284, 243 584.356 C 243 580.900, 246.942 579.305, 252.087 580.678 C 254.510 581.325, 256.270 581.372, 256.623 580.801 C 257.683 579.086, 253.552 577.064, 248.924 577.032 C 245.408 577.007, 243.845 577.536, 242.174 579.314 M 263.607 578.582 C 263.273 579.452, 263 585.265, 263 591.500 C 263 597.735, 263.273 603.548, 263.607 604.418 C 264.094 605.688, 265.883 606, 272.690 606 C 279.024 606, 281.063 605.684, 280.755 604.750 C 280.517 604.027, 278.269 603.390, 275.422 603.239 C 267.106 602.797, 266 602.307, 266 599.063 C 266 593.702, 266.765 593, 272.607 593 C 276.734 593, 278 592.648, 278 591.500 C 278 590.375, 276.800 590, 273.200 590 C 267.747 590, 266 588.768, 266 584.922 C 266 581.241, 267.665 580.171, 273.952 579.810 C 277.137 579.627, 279.511 578.989, 279.755 578.250 C 280.061 577.320, 278.124 577, 272.190 577 C 265.839 577, 264.090 577.322, 263.607 578.582 M 286.437 578.303 C 285.513 580.711, 286.471 604.999, 287.500 605.253 C 288.094 605.400, 288.703 601.350, 289 595.282 C 289.330 588.545, 289.852 585.309, 290.533 585.782 C 291.101 586.177, 293.320 588.975, 295.463 592 C 308.018 609.717, 309 609.676, 309 591.437 C 309 583.477, 308.607 578.875, 307.888 578.431 C 305.872 577.185, 305.031 580.379, 304.975 589.500 L 304.919 598.500 301.870 595 C 300.194 593.075, 296.598 588.237, 293.881 584.250 C 288.978 577.057, 287.399 575.796, 286.437 578.303 M 315.437 578.303 C 315.162 579.019, 315.064 585.432, 315.219 592.553 L 315.500 605.500 321.500 605.770 C 326.082 605.976, 328.262 605.570, 330.724 604.051 C 338.720 599.116, 338.947 584.659, 331.117 579.083 C 327.642 576.609, 316.304 576.045, 315.437 578.303 M 351.501 578.136 C 350.532 580.661, 351.428 604.989, 352.500 605.253 C 353.855 605.588, 354.398 578.998, 353.063 577.663 C 352.400 577, 351.877 577.158, 351.501 578.136 M 358.232 578.214 C 358.464 578.921, 360.190 579.649, 362.068 579.831 C 363.946 580.014, 365.817 580.689, 366.226 581.331 C 366.635 581.974, 366.976 587.563, 366.985 593.750 C 366.997 602.972, 367.265 605, 368.469 605 C 369.666 605, 369.990 602.731, 370.219 592.750 L 370.500 580.500 374.283 580 C 381.831 579.002, 378.528 577.501, 368.155 577.214 C 360.075 576.991, 357.902 577.210, 358.232 578.214 M 397.437 578.303 C 396.503 580.737, 397.468 605.006, 398.500 605.022 C 399.050 605.031, 399.725 602.442, 400 599.269 L 400.500 593.500 406 593 C 409.025 592.725, 411.500 592.050, 411.500 591.500 C 411.500 590.950, 409.025 590.275, 406 590 L 400.500 589.500 400.500 585 L 400.500 580.500 406.922 580 C 410.786 579.699, 413.508 579.002, 413.755 578.250 C 414.355 576.428, 398.136 576.481, 397.437 578.303 M 422.722 579.135 C 412.227 586.964, 417.139 606.648, 429.501 606.297 C 439.154 606.024, 445.251 592.956, 439.903 584 C 438.753 582.075, 436.842 579.723, 435.656 578.772 C 432.661 576.372, 426.183 576.554, 422.722 579.135 M 446.607 578.582 C 446.273 579.452, 446 585.785, 446 592.655 C 446 604.012, 446.159 605.116, 447.750 604.814 C 449.011 604.575, 449.640 603.226, 450 599.991 C 450.440 596.036, 450.815 595.464, 453.134 595.195 C 455.892 594.875, 457.785 596.683, 461.203 602.902 C 462.140 604.606, 463.378 606, 463.953 606 C 465.640 606, 465.116 602.706, 463 600 C 460.675 597.028, 460.437 594.153, 462.452 593.380 C 464.319 592.664, 466.328 586.609, 465.531 584.098 C 465.194 583.035, 464.003 581.003, 462.886 579.582 C 461.057 577.257, 460.177 577, 454.034 577 C 448.738 577, 447.078 577.353, 446.607 578.582 M 474.722 579.135 C 470.834 582.036, 468.994 586.098, 469.033 591.700 C 469.076 597.835, 472.972 603.835, 478.206 605.827 C 481.411 607.047, 482.255 607.019, 485.105 605.597 C 486.892 604.706, 489.174 604.238, 490.176 604.556 C 491.813 605.075, 492 604.471, 492 598.674 C 492 591.940, 491.377 591, 486.918 591 C 484.173 591, 484.550 593.474, 487.500 594.818 C 490.748 596.298, 490.667 598.329, 487.250 601.023 C 483.669 603.846, 477.576 603.251, 475.152 599.841 C 468.145 589.988, 475.703 576.090, 485.316 581.150 C 486.517 581.782, 487.819 582.791, 488.208 583.391 C 488.715 584.172, 489.249 584.151, 490.081 583.319 C 490.967 582.433, 490.629 581.538, 488.668 579.577 C 485.360 576.269, 478.841 576.063, 474.722 579.135 M 497.607 578.582 C 496.697 580.954, 496.906 603.303, 497.852 604.795 C 498.439 605.720, 500.932 606.006, 506.587 605.795 C 516.272 605.434, 516.693 603.697, 507.265 603 C 500.582 602.506, 500.499 602.464, 500.396 599.548 C 500.196 593.840, 500.823 593.120, 506.275 592.799 C 513.187 592.391, 513.982 590, 507.206 590 C 504.419 590, 501.822 589.452, 501.280 588.750 C 500.481 587.716, 500.289 583.970, 500.871 580.798 C 500.942 580.411, 503.777 579.961, 507.171 579.798 C 510.991 579.613, 513.498 579.024, 513.754 578.250 C 514.061 577.320, 512.125 577, 506.190 577 C 499.839 577, 498.090 577.322, 497.607 578.582 M 518.694 577.639 C 517.501 578.832, 519.106 580, 521.937 580 C 526.397 580, 527.129 581.834, 526.997 592.673 C 526.839 605.521, 526.777 605, 528.469 605 C 529.666 605, 529.990 602.731, 530.219 592.750 L 530.500 580.500 534.250 580.190 C 536.703 579.987, 538 579.381, 538 578.440 C 538 577.290, 536.122 577, 528.667 577 C 523.533 577, 519.046 577.288, 518.694 577.639 M 551.683 577.650 C 551.308 578.026, 551 584.366, 551 591.740 C 551 603.535, 551.194 605.108, 552.611 604.823 C 553.993 604.546, 554.219 602.675, 554.203 591.641 C 554.185 579.840, 553.469 575.865, 551.683 577.650 M 558.517 577.972 C 557.784 579.159, 559.180 579.785, 563.500 580.207 L 566.500 580.500 566.747 591 C 567.024 602.732, 567.597 606.367, 569.029 605.482 C 569.564 605.151, 570 599.803, 570 593.563 C 570 581.391, 570.367 580.437, 575.281 579.838 C 576.811 579.652, 578.050 579.050, 578.036 578.500 C 578 577.123, 559.354 576.618, 558.517 577.972 M 450.364 580.493 C 450.101 581.178, 450.024 584.160, 450.193 587.119 C 450.466 591.901, 450.762 592.537, 452.852 592.833 C 456.655 593.371, 459.860 592.143, 461.606 589.478 C 462.982 587.378, 463.043 586.518, 461.992 583.981 C 461.297 582.302, 459.810 580.786, 458.623 580.548 C 452.622 579.342, 450.811 579.330, 450.364 580.493 M 318.667 580.667 C 318.300 581.033, 318 586.208, 318 592.167 L 318 603 322.365 603 C 327.760 603, 331.557 600.265, 332.896 595.414 C 335.177 587.154, 330.625 580, 323.090 580 C 321.024 580, 319.033 580.300, 318.667 580.667 M 425.407 580.973 C 422.951 581.966, 420 587.675, 420 591.433 C 420 595.241, 422.509 600.667, 424.850 601.920 C 432.538 606.034, 440.540 597.435, 437.956 587.835 C 436.282 581.619, 430.980 578.720, 425.407 580.973" stroke="none" fill="#242424" fill-rule="evenodd"/><title>MegaMail</title></svg>
